# xmcd
#
# Track frame offsets: 
#        150
#        25192
#        44244
#        61046
#        87280
#        100134
#        120161
#        147095
#        167200
#        197727
#
# Disc length: 2833 seconds
#
# Revision: 0
# Processed by: cddbd v1.5.2PL0 Copyright (c) Steve Scherf et al.
# Submitted via: ExactAudioCopy v0.99pb4
#
DISCID=800b0f0a
DTITLE=Gus and the Grinders - Out The Door
DYEAR=2000
DGENRE=Blues
TTITLE0=Shucho Mouth
TTITLE1=Leavin' You
TTITLE2=Out The Door
TTITLE3=Jim Beam
TTITLE4=Big Belly Boogie
TTITLE5=The Battle
TTITLE6=Black Dress
TTITLE7=Alarm Clock
TTITLE8=Push Comes To Shove
TTITLE9=Son Of The Blues
EXTD=
EXTT0=
EXTT1=
EXTT2=
EXTT3=
EXTT4=
EXTT5=
EXTT6=
EXTT7=
EXTT8=
EXTT9=
PLAYORDER=
